<?xml version="1.0" standalone="no"?>
<!DOCTYPE svg PUBLIC "-//W3C//DTD SVG 20010904//EN"
 "http://www.w3.org/TR/2001/REC-SVG-20010904/DTD/svg10.dtd">
<svg version="1.0" xmlns="http://www.w3.org/2000/svg"
 width="144.000000pt" height="144.000000pt" viewBox="0 0 1237.000000 1234.000000"
 preserveAspectRatio="xMidYMid meet">

<g transform="translate(0.000000,1234.000000) scale(0.100000,-0.100000)"
fill="#DC143C" stroke="none">
<path d="M10 6175 l0 -6165 6180 0 6180 0 0 6165 0 6165 -6180 0 -6180 0 0
-6165z m6897 3424 c276 -30 500 -133 697 -319 137 -130 249 -317 297 -496 33
-123 38 -379 10 -543 -38 -222 -150 -512 -281 -725 -255 -416 -704 -822 -1310
-1187 -330 -198 -589 -289 -823 -289 -206 0 -331 81 -398 259 -120 323 161
869 538 1043 92 43 219 51 304 19 116 -44 179 -126 179 -233 -1 -107 -16 -129
-264 -373 -220 -217 -250 -254 -276 -342 -11 -37 -11 -45 5 -69 16 -26 20 -26
89 -22 264 19 842 421 1196 833 290 338 432 633 434 900 1 125 -15 191 -63
267 -91 143 -283 177 -521 93 -230 -81 -424 -189 -855 -475 -430 -285 -660
-380 -918 -380 -162 1 -254 32 -350 120 -172 157 -176 417 -12 714 179 324
447 567 939 850 489 282 958 403 1383 355z m-2102 -4477 c47 -24 105 -83 131
-132 13 -25 18 -57 18 -115 0 -67 -4 -88 -26 -131 -86 -165 -311 -200 -443
-69 -53 54 -77 113 -77 194 -1 129 64 220 191 268 50 19 156 11 206 -15z
m2170 -662 l145 0 0 -160 0 -160 -145 0 -145 0 0 -465 c0 -300 4 -482 11 -515
21 -98 99 -150 226 -150 l53 0 0 -135 c0 -120 -2 -136 -17 -143 -10 -4 -83 -7
-163 -7 -111 0 -159 5 -205 19 -177 53 -286 163 -330 333 -13 49 -15 188 -15
923 l0 866 218 35 217 35 3 -238 2 -238 145 0z m2367 -417 c3 -826 4 -901 20
-929 37 -68 114 -104 218 -104 l40 0 0 -139 0 -140 -46 -7 c-85 -12 -293 2
-358 25 -158 56 -250 160 -294 328 -15 62 -17 145 -17 928 l0 860 205 36 c113
20 211 37 217 38 10 1 13 -196 15 -896z m-5644 431 c219 -44 374 -188 429
-396 13 -53 17 -143 20 -583 l5 -520 -51 -43 c-158 -134 -358 -209 -602 -227
-343 -25 -618 150 -704 449 -22 75 -22 219 0 300 47 175 181 307 380 373 75
25 95 27 303 31 l222 4 0 81 c0 87 -19 146 -56 179 -90 80 -307 67 -539 -33
-49 -21 -92 -35 -96 -31 -10 10 -109 238 -109 249 0 13 175 95 272 127 163 55
375 71 526 40z m2472 -4 c58 -14 100 -30 100 -41 0 -4 -26 -67 -57 -139 l-58
-131 -50 7 c-136 19 -282 -7 -377 -68 l-48 -30 0 -669 0 -669 -220 0 -220 0 0
714 0 714 61 56 c153 142 341 233 545 266 69 10 259 5 324 -10z m1965 -5 c245
-44 406 -215 470 -502 23 -101 50 -396 39 -415 -3 -5 -211 -8 -463 -8 l-459 0
-4 -25 c-9 -47 12 -218 36 -287 41 -118 99 -174 211 -203 74 -19 120 -19 230
0 99 18 219 61 288 105 l47 30 63 -126 62 -126 -30 -23 c-39 -32 -194 -108
-272 -134 -159 -53 -404 -65 -548 -27 -360 96 -581 490 -536 954 40 415 224
695 511 776 103 29 233 33 355 11z m-3235 -870 l0 -865 -217 2 -218 3 -3 827
-2 827 32 6 c129 24 367 63 386 64 l22 1 0 -865z"/>
<path d="M3441 3554 c-98 -26 -155 -76 -186 -163 -20 -57 -19 -165 2 -226 22
-65 85 -127 146 -145 60 -16 174 -9 242 17 l50 19 3 257 2 257 -102 -1 c-57 0
-127 -7 -157 -15z"/>
<path d="M7900 4139 c-51 -21 -93 -63 -121 -123 -25 -54 -49 -142 -49 -182 0
-11 43 -14 231 -14 l232 0 -7 66 c-13 130 -57 212 -130 245 -44 20 -116 24
-156 8z"/>
</g>
</svg>
