<?xml version="1.0" standalone="no"?>
<!DOCTYPE svg PUBLIC "-//W3C//DTD SVG 20010904//EN"
 "http://www.w3.org/TR/2001/REC-SVG-20010904/DTD/svg10.dtd">
<svg version="1.0" xmlns="http://www.w3.org/2000/svg"
 width="144.000000pt" height="144.000000pt" viewBox="0 0 512.000000 512.000000"
 preserveAspectRatio="xMidYMid meet">

<g transform="translate(0.000000,512.000000) scale(0.100000,-0.100000)"
fill="#B8752A" stroke="none">
<path d="M1190 4367 l-25 -13 -3 -990 -2 -991 -78 -26 c-42 -15 -80 -27 -84
-27 -5 0 -8 76 -8 168 0 151 -2 171 -18 185 -17 15 -63 17 -454 17 -409 0
-436 -1 -451 -18 -16 -17 -17 -98 -17 -955 l0 -936 27 -21 c26 -20 32 -21 456
-18 411 3 429 4 443 22 10 15 14 53 14 147 l0 128 68 20 c37 11 108 32 157 47
69 20 119 28 216 31 180 7 237 -9 508 -145 164 -82 238 -114 306 -130 282 -69
525 -70 720 -4 150 51 1713 706 1745 731 51 41 90 121 90 186 0 92 -44 178
-112 219 l-39 23 67 39 c37 21 99 71 138 110 384 383 229 1028 -289 1201 -72
24 -95 27 -228 28 l-147 0 0 466 c0 445 -1 468 -19 490 l-19 24 -1469 2
c-1171 2 -1473 0 -1493 -10z m960 -207 l0 -100 -435 0 -435 0 0 100 0 100 435
0 435 0 0 -100z m1918 -2 l3 -98 -441 0 -440 0 0 100 0 100 438 -2 437 -3 3
-97z m-998 -203 c0 -162 -3 -295 -7 -295 -5 0 -89 54 -188 120 -99 66 -190
120 -202 120 -12 0 -95 -49 -186 -109 -90 -59 -173 -114 -185 -120 l-22 -12 0
296 0 295 395 0 395 0 0 -295z m-920 -217 c0 -228 5 -251 56 -256 26 -3 68 21
238 133 114 75 213 138 220 141 7 3 110 -58 228 -135 122 -80 225 -141 238
-141 13 0 32 7 42 17 16 15 18 35 18 230 l0 213 438 -2 437 -3 3 -292 2 -292
-72 -38 c-51 -26 -100 -64 -159 -123 -95 -94 -146 -175 -187 -298 -23 -68 -26
-94 -26 -217 0 -128 2 -147 28 -220 66 -190 181 -326 357 -420 l62 -33 -59 -6
c-62 -7 -784 -66 -803 -66 -7 0 -11 25 -11 68 0 53 -6 80 -28 127 -27 55 -84
119 -129 143 -10 6 -198 76 -417 156 -220 81 -402 149 -405 151 -2 3 280 5
627 5 560 0 632 2 646 16 14 13 16 63 16 394 0 331 -2 381 -16 394 -14 14
-102 16 -824 16 l-809 0 -16 -22 c-13 -20 -15 -72 -15 -397 l1 -375 -53 -17
c-29 -9 -151 -51 -272 -93 -120 -42 -220 -76 -222 -76 -2 0 -4 342 -4 760 l0
760 435 0 435 0 0 -202z m1240 -748 l0 -290 -720 0 -720 0 0 290 0 290 720 0
720 0 0 -290z m1151 258 c100 -37 157 -74 234 -152 81 -82 137 -184 160 -292
66 -310 -121 -618 -430 -710 -81 -24 -239 -24 -319 0 -323 97 -507 412 -426
730 28 111 74 189 160 277 80 81 170 134 280 164 84 23 256 14 341 -17z
m-4081 -1172 l0 -495 26 -20 c33 -26 49 -26 74 -1 19 19 20 33 20 515 l0 495
145 0 145 0 0 -855 0 -855 -350 0 -350 0 0 855 0 855 145 0 145 0 0 -494z
m2074 254 c276 -101 460 -173 478 -188 59 -50 84 -139 57 -209 -30 -81 -106
-143 -175 -143 -16 0 -245 38 -509 85 -264 47 -490 85 -502 85 -52 0 -68 -89
-20 -110 12 -6 240 -49 507 -96 520 -92 555 -95 643 -56 25 11 64 39 87 62
l43 43 714 58 c675 56 717 58 749 43 71 -34 96 -129 51 -195 -26 -39 70 4
-1002 -440 -385 -160 -731 -299 -770 -311 -148 -43 -426 -33 -627 23 -40 11
-170 69 -288 127 -271 136 -313 147 -520 146 -151 -1 -158 -2 -298 -42 -78
-23 -147 -42 -152 -42 -6 0 -10 182 -10 509 l0 509 58 20 c31 11 215 75 407
142 448 157 422 150 535 146 l95 -2 449 -164z"/>
<path d="M2278 3230 c-60 -11 -129 -60 -163 -114 -27 -44 -30 -58 -30 -126 0
-68 3 -82 30 -126 36 -57 106 -104 170 -114 60 -9 89 6 93 48 4 43 -10 59 -61
67 -52 9 -84 30 -103 66 -36 71 0 155 76 177 85 25 90 29 90 66 0 51 -34 69
-102 56z"/>
<path d="M2600 3229 c-57 -11 -116 -52 -154 -107 -25 -35 -31 -55 -34 -112 -5
-83 8 -124 53 -178 96 -111 268 -114 366 -5 157 175 1 447 -231 402z m120
-138 c36 -25 63 -84 55 -121 -16 -72 -90 -118 -159 -99 -82 23 -116 132 -60
198 42 51 109 59 164 22z"/>
<path d="M2985 3219 l-25 -20 0 -208 c0 -196 1 -209 20 -226 44 -40 160 -7
221 62 43 50 61 97 61 163 0 95 -52 180 -135 218 -66 31 -112 34 -142 11z
m154 -196 c12 -43 -2 -93 -34 -123 l-25 -23 0 113 0 113 25 -23 c14 -13 29
-38 34 -57z"/>
<path d="M4305 3195 c-15 -14 -25 -36 -25 -53 0 -23 -6 -30 -36 -41 -53 -19
-118 -88 -137 -146 -21 -60 -21 -110 -2 -166 35 -98 109 -154 226 -171 83 -12
123 -40 139 -96 27 -101 -67 -194 -164 -162 -18 6 -49 29 -69 50 -39 44 -73
52 -100 22 -10 -10 -17 -31 -17 -46 0 -34 66 -107 120 -131 32 -14 40 -23 40
-44 0 -42 26 -71 64 -71 40 0 52 12 61 62 5 28 14 39 38 49 18 8 49 29 70 48
75 68 101 159 72 256 -30 103 -139 185 -247 185 -70 0 -122 56 -122 131 0 130
152 175 240 70 32 -39 59 -47 89 -27 31 20 32 57 5 102 -21 32 -102 94 -125
94 -7 0 -15 18 -19 39 -6 39 -35 71 -64 71 -7 0 -24 -11 -37 -25z"/>
</g>
</svg>
